<svg width="96" height="96" viewBox="0 0 96 96" fill="none" xmlns="http://www.w3.org/2000/svg">
<path d="M92.8 44V20.4464L70.4 12.9792V44H67.2V8.8H28.8V44H25.6V24.8H22.4V13.6H16V4H12.8V13.6H6.4V24.8H3.2V44H0V88.8H28.8V92H67.2V88.8H96V44H92.8ZM9.6 16.8H19.2V24.8H9.6V16.8ZM6.4 28H22.4V44H6.4V28ZM28.8 85.6H3.2V47.2H28.8V85.6ZM51.2 88.8H44.8V72.8H51.2V88.8ZM64 88.8H54.4V69.6H41.6V88.8H32V12H64V88.8ZM73.6 17.4208L89.6 22.7536V44H86.4V24.8H83.2V44H80V24.8H76.8V44H73.6V17.4208ZM83.2 85.6H76.8V79.2H83.2V85.6ZM92.8 85.6H86.4V76H73.6V85.6H67.2V47.2H92.8V85.6Z" fill="#242A78"/>
<path d="M25.5999 50.3999H6.3999V53.5999H25.5999V50.3999Z" fill="#242A78"/>
<path d="M25.5999 56.7998H6.3999V59.9998H25.5999V56.7998Z" fill="#242A78"/>
<path d="M25.5999 63.2002H6.3999V66.4002H25.5999V63.2002Z" fill="#242A78"/>
<path d="M25.5999 69.6001H6.3999V72.8001H25.5999V69.6001Z" fill="#242A78"/>
<path d="M36.8 18.3999V27.9999H46.4V18.3999H36.8ZM43.2 24.7999H40V21.5999H43.2V24.7999Z" fill="#242A78"/>
<path d="M49.6001 18.3999V27.9999H59.2001V18.3999H49.6001ZM56.0001 24.7999H52.8001V21.5999H56.0001V24.7999Z" fill="#242A78"/>
<path d="M36.8 31.2002V40.8002H46.4V31.2002H36.8ZM43.2 37.6002H40V34.4002H43.2V37.6002Z" fill="#242A78"/>
<path d="M49.6001 31.2002V40.8002H59.2001V31.2002H49.6001ZM56.0001 37.6002H52.8001V34.4002H56.0001V37.6002Z" fill="#242A78"/>
<path d="M36.8 44V53.6H46.4V44H36.8ZM43.2 50.4H40V47.2H43.2V50.4Z" fill="#242A78"/>
<path d="M49.6001 44V53.6H59.2001V44H49.6001ZM56.0001 50.4H52.8001V47.2H56.0001V50.4Z" fill="#242A78"/>
<path d="M36.8 56.7998V66.3998H46.4V56.7998H36.8ZM43.2 63.1998H40V59.9998H43.2V63.1998Z" fill="#242A78"/>
<path d="M49.6001 56.7998V66.3998H59.2001V56.7998H49.6001ZM56.0001 63.1998H52.8001V59.9998H56.0001V63.1998Z" fill="#242A78"/>
<path d="M73.5999 50.3999H70.3999V53.5999H73.5999V50.3999Z" fill="#242A78"/>
<path d="M83.2 50.3999H76.8V53.5999H83.2V50.3999Z" fill="#242A78"/>
<path d="M89.5999 50.3999H86.3999V53.5999H89.5999V50.3999Z" fill="#242A78"/>
<path d="M73.5999 56.7998H70.3999V59.9998H73.5999V56.7998Z" fill="#242A78"/>
<path d="M83.2 56.7998H76.8V59.9998H83.2V56.7998Z" fill="#242A78"/>
<path d="M89.5999 56.7998H86.3999V59.9998H89.5999V56.7998Z" fill="#242A78"/>
<path d="M73.5999 63.2002H70.3999V66.4002H73.5999V63.2002Z" fill="#242A78"/>
<path d="M83.2 63.2002H76.8V66.4002H83.2V63.2002Z" fill="#242A78"/>
<path d="M89.5999 63.2002H86.3999V66.4002H89.5999V63.2002Z" fill="#242A78"/>
<path d="M73.5999 69.6001H70.3999V72.8001H73.5999V69.6001Z" fill="#242A78"/>
<path d="M83.2 69.6001H76.8V72.8001H83.2V69.6001Z" fill="#242A78"/>
<path d="M89.5999 69.6001H86.3999V72.8001H89.5999V69.6001Z" fill="#242A78"/>
</svg>
