<svg width="13" height="14" viewBox="0 0 13 14" fill="none" xmlns="http://www.w3.org/2000/svg">
<path d="M6.64355 13.3246L6.64355 0.563015C6.64355 0.252058 6.39133 -1.1025e-08 6.08054 -2.46103e-08C5.76974 -3.81956e-08 5.51752 0.252031 5.51752 0.563015L5.51752 13.3246C5.51752 13.6355 5.76955 13.8876 6.08054 13.8876C6.39152 13.8876 6.64355 13.6356 6.64355 13.3246Z" fill="#39373A"/>
<path d="M6.47878 13.8348L11.9963 8.31751C12.2161 8.09755 12.2161 7.74137 11.9963 7.52141C11.7764 7.30146 11.4198 7.30146 11.2 7.52141L6.08057 12.6407L0.961094 7.52141C0.741329 7.30146 0.384762 7.30146 0.164997 7.52141C0.0550194 7.63139 2.95456e-05 7.77533 2.95393e-05 7.91946C2.9533e-05 8.06359 0.0550193 8.20753 0.164997 8.31751L5.6825 13.8348C5.90245 14.0548 6.25905 14.0548 6.47878 13.8348Z" fill="#39373A"/>
</svg>
