<svg width="14" height="13" viewBox="0 0 14 13" fill="none" xmlns="http://www.w3.org/2000/svg">
<path d="M13.3236 5.51758H0.562039C0.251082 5.51758 -0.000976562 5.7698 -0.000976562 6.0806C-0.000976562 6.39139 0.251054 6.64361 0.562039 6.64361H13.3236C13.6346 6.64361 13.8866 6.39158 13.8866 6.0806C13.8866 5.76961 13.6346 5.51758 13.3236 5.51758Z" fill="#39373A"/>
<path d="M13.8338 5.68235L8.31653 0.164824C8.09658 -0.0549412 7.74039 -0.0549412 7.52044 0.164824C7.30048 0.38478 7.30048 0.741347 7.52044 0.961112L12.6397 6.08056L7.52044 11.2C7.30048 11.4198 7.30048 11.7764 7.52044 11.9961C7.63041 12.1061 7.77435 12.1611 7.91849 12.1611C8.06262 12.1611 8.20656 12.1061 8.31653 11.9961L13.8338 6.47864C14.0538 6.25868 14.0538 5.90209 13.8338 5.68235Z" fill="#39373A"/>
</svg>
